<?xml version="1.0" encoding="UTF-8" standalone="no"?>
<!-- Created with Inkscape (http://www.inkscape.org/) -->

<svg
   xmlns:dc="http://purl.org/dc/elements/1.1/"
   xmlns:cc="http://creativecommons.org/ns#"
   xmlns:rdf="http://www.w3.org/1999/02/22-rdf-syntax-ns#"
   xmlns:svg="http://www.w3.org/2000/svg"
   xmlns="http://www.w3.org/2000/svg"
   xmlns:sodipodi="http://sodipodi.sourceforge.net/DTD/sodipodi-0.dtd"
   xmlns:inkscape="http://www.inkscape.org/namespaces/inkscape"
   id="svg2"
   version="1.1"
   inkscape:version="0.91 r13725"
   xml:space="preserve"
   width="184.0004"
   height="52"
   viewBox="0 0 184.0004 52"
   sodipodi:docname="logo.svg"><metadata
     id="metadata8"><rdf:RDF><cc:Work
         rdf:about=""><dc:format>image/svg+xml</dc:format><dc:type
           rdf:resource="http://purl.org/dc/dcmitype/StillImage" /><dc:title></dc:title></cc:Work></rdf:RDF></metadata><defs
     id="defs6" /><sodipodi:namedview
     pagecolor="#ffffff"
     bordercolor="#666666"
     borderopacity="1"
     objecttolerance="10"
     gridtolerance="10"
     guidetolerance="10"
     inkscape:pageopacity="0"
     inkscape:pageshadow="2"
     inkscape:window-width="1287"
     inkscape:window-height="670"
     id="namedview4"
     showgrid="false"
     fit-margin-top="0"
     fit-margin-left="0"
     fit-margin-right="0"
     fit-margin-bottom="0"
     inkscape:zoom="1.812"
     inkscape:cx="114.57147"
     inkscape:cy="-38.728882"
     inkscape:window-x="1594"
     inkscape:window-y="139"
     inkscape:window-maximized="0"
     inkscape:current-layer="g10" /><g
     id="g10"
     inkscape:groupmode="layer"
     inkscape:label="ink_ext_XXXXXX"
     transform="matrix(1.25,0,0,-1.25,-407.9998,167.77688)"><g
       id="g3384"
       transform="matrix(0.18400039,0,0,0.18338675,326.39984,92.6215)"><g
         transform="scale(0.1,0.1)"
         id="g12"><path
           inkscape:connector-curvature="0"
           id="path14"
           style="fill:#231f20;fill-opacity:1;fill-rule:nonzero;stroke:none"
           d="m 629.363,1014.24 c 0,65 52.535,117.63 117.215,117.63 64.727,0 117.328,-52.63 117.328,-117.63 0,-64.65 -52.601,-117.189 -117.328,-117.189 -64.68,0 -117.215,52.539 -117.215,117.189 z M 1014.31,553.43 c 254.07,0 460.08,206.429 460.08,460.81 0,254.84 -206.01,461.13 -460.08,461.13 -254.013,0 -459.845,-206.29 -459.845,-461.13 0,-254.381 205.832,-460.81 459.845,-460.81" /><path
           inkscape:connector-curvature="0"
           id="path16"
           style="fill:#231f20;fill-opacity:1;fill-rule:nonzero;stroke:none"
           d="m 2455.76,1883.75 83.36,0 c 6.49,0 43.13,5.31 62.74,-19.5 16.8,-20.73 12.83,-48.23 12.83,-74.2 l 0,-93.89 c 0,-18.36 0,-48.23 -11.53,-63.91 -10.49,-14.33 -30.06,-18.33 -65.2,-18.33 l -82.2,0 0,269.83 z m 0,-401.39 143.47,0 c 83.48,0 122.54,11.62 149.78,45.57 28.68,35.27 32.65,77 32.65,163.03 l 0,121.2 c 0,40.29 0,99.09 -19.58,138.15 -8.78,18.31 -35.11,53.38 -89.99,65.25 -18.08,3.97 -40.39,3.97 -45.57,3.97 l -341.53,0 0,-920.61 170.77,0 0,383.44" /><path
           inkscape:connector-curvature="0"
           id="path18"
           style="fill:#231f20;fill-opacity:1;fill-rule:nonzero;stroke:none"
           d="m 3183.14,1228.08 c -20.76,-14.37 -45.59,-15.62 -53.47,-15.62 -7.8,0 -49.39,0 -69.04,27.46 -17.01,23.53 -15.55,57.15 -15.55,84.65 l 0,465.48 c 0,37.74 -5.17,78.13 32.38,104.26 21.01,15.6 45.91,16.94 54.91,16.94 42.88,0 62.63,-23.37 70.43,-40.4 14.26,-27.33 10.38,-69.08 10.38,-74.39 l 0,-475.86 c 0,-33.85 1.4,-70.29 -30.04,-92.52 z m 201.01,67.78 0,512.37 c 0,63.95 -6.79,92.48 -20.96,122.63 -27.4,53.49 -97.71,108.12 -230.82,108.12 -102.95,0 -166.79,-30.04 -200.86,-59.94 -61.17,-54.74 -57.22,-147.29 -57.22,-166.88 l 0,-516.3 c 0,-33.93 3.84,-73.05 19.39,-105.65 5.4,-13.01 18.27,-35.21 45.73,-57.32 54.76,-44.32 124.01,-53.54 191.64,-53.54 70.37,0 144.85,10.47 199.57,61.25 44.4,43.13 53.53,96.6 53.53,155.26" /><path
           inkscape:connector-curvature="0"
           id="path20"
           style="fill:#231f20;fill-opacity:1;fill-rule:nonzero;stroke:none"
           d="m 3924.9,1238.45 -248.82,0 0,781.08 -169.61,0 0,-920.61 418.43,0 0,139.53" /><path
           inkscape:connector-curvature="0"
           id="path22"
           style="fill:#231f20;fill-opacity:1;fill-rule:nonzero;stroke:none"
           d="m 3995.35,1098.92 168.109,0 0,920.605 -168.109,0 0,-920.605 z" /><path
           inkscape:connector-curvature="0"
           id="path24"
           style="fill:#231f20;fill-opacity:1;fill-rule:nonzero;stroke:none"
           d="m 4742.43,2019.53 -511.2,0 0,-133.17 169.59,0 0,-787.44 170.63,0 0,787.44 170.98,0 0,133.17" /><path
           inkscape:connector-curvature="0"
           id="path26"
           style="fill:#231f20;fill-opacity:1;fill-rule:nonzero;stroke:none"
           d="m 4979.58,1524.2 260.63,0 0,139.37 -260.63,0 0,216.41 276.35,0 0,139.55 -445.92,0 0,-920.61 459.05,0 0,142.09 -289.48,0 0,283.19" /><path
           inkscape:connector-curvature="0"
           id="path28"
           style="fill:#231f20;fill-opacity:1;fill-rule:nonzero;stroke:none"
           d="m 5220.84,2268.43 -202.1,0 -83.44,-174.59 119.83,0 165.71,174.59" /><path
           inkscape:connector-curvature="0"
           id="path30"
           style="fill:#231f20;fill-opacity:1;fill-rule:nonzero;stroke:none"
           d="m 5836.04,1204.59 c 11.76,33.86 13.21,73.04 13.21,109.55 l 0,130.37 -167.05,0 0,-119.94 c 0,-70.41 -6.45,-113.5 -82.16,-113.5 -70.49,0 -83.22,44.34 -83.22,104.36 l 0,492.8 c 0,60.04 12.73,100.56 77.91,100.56 75.67,0 87.47,-37.94 87.47,-108.29 l 0,-116.16 167.05,0 0,140.93 c 0,56.11 -1.45,74.21 -15.63,104.22 -11.7,27.34 -32.72,50.89 -57.44,67.88 -50.79,33.79 -113.41,41.61 -172.12,41.61 -101.77,0 -152.46,-23.42 -190.35,-53.35 -47,-37.77 -62.42,-83.39 -65.25,-142.11 -1.27,-15.72 -2.61,-32.68 -2.61,-48.41 l 0,-500.58 c 0,-33.93 0,-62.66 13.16,-96.45 27.31,-66.42 87.16,-96.48 154.85,-109.51 12.08,-2.69 48.43,-9.22 87.52,-9.22 19.43,0 190.43,-2.56 234.66,125.24" /><path
           inkscape:connector-curvature="0"
           id="path32"
           style="fill:#231f20;fill-opacity:1;fill-rule:nonzero;stroke:none"
           d="m 6334.08,1344.18 -165.62,675.35 -217.65,0 0,-920.61 159.09,0 -14.47,689.85 162.87,-689.85 213.77,0 0,920.61 -154.98,0 16.99,-675.35" /><path
           inkscape:connector-curvature="0"
           id="path34"
           style="fill:#231f20;fill-opacity:1;fill-rule:nonzero;stroke:none"
           d="m 6602.46,1098.92 168.359,0 0,920.605 -168.359,0 0,-920.605 z" /><path
           inkscape:connector-curvature="0"
           id="path36"
           style="fill:#231f20;fill-opacity:1;fill-rule:nonzero;stroke:none"
           d="m 7323.48,1997.23 c -50.86,33.93 -113.51,41.75 -171.97,41.75 -101.71,0 -152.69,-23.42 -190.47,-53.4 -46.75,-37.72 -62.44,-83.34 -65.24,-142.18 -1.21,-15.6 -2.56,-32.56 -2.56,-48.29 l 0,-500.58 c 0,-33.93 0,-62.66 13.21,-96.45 27.32,-66.42 87.35,-96.48 154.93,-109.51 11.66,-2.69 48.45,-9.22 87.61,-9.22 19.18,0 190.11,-2.56 234.41,125.24 11.8,33.86 13.16,73.04 13.16,109.55 l 0,130.37 -167.26,0 0,-119.94 c 0,-70.41 -6.29,-113.5 -81.9,-113.5 -70.17,0 -83.37,44.34 -83.37,104.36 l 0,492.8 c 0,60.04 13.2,100.56 78.36,100.56 75.35,0 86.91,-37.94 86.91,-108.29 l 0,-116.16 167.26,0 0,140.93 c 0,56.11 -1.36,74.21 -15.68,104.22 -11.78,27.34 -32.62,50.89 -57.4,67.74" /><path
           inkscape:connector-curvature="0"
           id="path38"
           style="fill:#231f20;fill-opacity:1;fill-rule:nonzero;stroke:none"
           d="m 7799.4,1228.08 c -20.96,-14.37 -45.77,-15.62 -53.51,-15.62 -7.82,0 -49.53,0 -69.2,27.46 -16.82,23.53 -15.51,57.15 -15.51,84.65 l 0,465.48 c 0,37.74 -5.16,78.13 32.49,104.26 20.8,15.6 45.62,16.94 54.82,16.94 42.97,0 62.73,-23.37 70.22,-40.4 14.53,-27.45 10.45,-69.08 10.45,-74.39 l 0,-475.86 c 0,-33.85 1.56,-70.29 -29.76,-92.52 z m 180.07,702.78 c -27.59,53.43 -98.05,108.12 -230.98,108.12 -102.98,0 -166.93,-30.04 -200.91,-59.94 -61.24,-54.74 -57.17,-147.29 -57.17,-166.88 l 0,-516.3 c 0,-33.93 3.92,-73.05 19.6,-105.65 5.17,-13.01 18.19,-35.29 45.4,-57.32 54.88,-44.32 124.18,-53.54 191.82,-53.54 70.33,0 144.68,10.47 199.42,61.25 44.25,43.13 53.35,96.6 53.35,155.26 l 0,512.37 c 0,63.95 -6.25,92.48 -20.53,122.63" /><path
           inkscape:connector-curvature="0"
           id="path40"
           style="fill:#231f20;fill-opacity:1;fill-rule:nonzero;stroke:none"
           d="m 2502.16,446.398 0,-295.886 c 0,-29.5 -2.33,-55.5315 -37.75,-62.0901 -9.93,-1.8828 -20.87,-1.8828 -30.98,-1.8828 l -38.54,0 0,420.2309 42.79,0 c 16.8,0 35.23,1.699 49.5,-10 15.95,-13.532 14.98,-32.008 14.98,-50.372 z m 65.8,117.461 c -32.02,27.039 -65.8,29.461 -81.74,29.461 l -200.69,0 0,-593.32 175.68,0 c 32.58,0 63.87,0.949219 94.1,18.5898 23.38,13.379 52,45.3711 55.41,108.3012 0.85,10.937 0.85,21.898 0.85,32.929 l 0,277.192 c 0,48.566 -3.57,92.379 -43.61,126.847" /><path
           inkscape:connector-curvature="0"
           id="path42"
           style="fill:#231f20;fill-opacity:1;fill-rule:nonzero;stroke:none"
           d="m 2797.34,273.961 168.07,0 0,89.918 -168.07,0 0,139.422 178.08,0 0,90.019 -287.29,0 0,-593.2614062 295.49,0 0,91.6211062 -186.28,0 0,182.2813" /><path
           inkscape:connector-curvature="0"
           id="path44"
           style="fill:#231f20;fill-opacity:1;fill-rule:nonzero;stroke:none"
           d="m 3499.06,920.449 -169.41,0 0,-920.3904062 418.44,0 0,139.4724062 -249.03,0 0,780.918" /><path
           inkscape:connector-curvature="0"
           id="path46"
           style="fill:#231f20;fill-opacity:1;fill-rule:nonzero;stroke:none"
           d="m 3988.04,425.059 260.78,0 0,139.429 -260.78,0 0,216.543 276.44,0 0,139.418 -445.84,0 0,-920.3904062 458.68,0 0,142.1794062 -289.28,0 0,282.821" /><path
           inkscape:connector-curvature="0"
           id="path48"
           style="fill:#231f20;fill-opacity:1;fill-rule:nonzero;stroke:none"
           d="m 4362.11,0.0585938 168.082,0 0,920.3909962 -168.082,0 0,-920.3909962 z" /><path
           inkscape:connector-curvature="0"
           id="path50"
           style="fill:#231f20;fill-opacity:1;fill-rule:nonzero;stroke:none"
           d="m 4997.17,631.172 c 0,-66.684 -19.62,-87.293 -78.4,-87.293 l -88.6,0 0,245.101 88.6,0 c 58.78,0 78.4,-18.339 78.4,-75.718 l 0,-82.09 z m 168.05,-41.621 0,166.758 c 0,112.121 -53.44,164.14 -165.52,164.14 l -339.05,0 0,-920.449 169.52,0 0,408.102 63.88,0 L 5024.38,0 5200.43,0 5057,431.602 c 80.95,24.82 108.22,66.519 108.22,157.949" /><path
           inkscape:connector-curvature="0"
           id="path52"
           style="fill:#231f20;fill-opacity:1;fill-rule:nonzero;stroke:none"
           d="m 5285.09,0.0585938 168.07,0 0,920.3909962 -168.07,0 0,-920.3909962 z" /><path
           inkscape:connector-curvature="0"
           id="path54"
           style="fill:#231f20;fill-opacity:1;fill-rule:nonzero;stroke:none"
           d="m 5746.66,292.18 61.29,394.968 55.8,-394.968 -117.09,0 z m -36.78,628.269 -178.52,-920.3904062 169.61,0 24.66,149.9214062 156.49,0 22.35,-149.9214062 172.01,0 -172.01,920.3904062 -194.59,0" /><path
           inkscape:connector-curvature="0"
           id="path56"
           style="fill:#231f20;fill-opacity:1;fill-rule:nonzero;stroke:none"
           d="m 1014.31,1682.67 c 368.39,0 666.82,-299.12 666.82,-668.43 0,-368.951 -298.43,-668.092 -666.82,-668.092 -368.271,0 -666.755,299.141 -666.755,668.092 0,369.31 298.484,668.43 666.755,668.43 z M 0,0 l 2028.77,0 0,2028.73 L 0,2028.73 0,0" /></g></g></g></svg>