<?xml version="1.0" standalone="no"?>
<!DOCTYPE svg PUBLIC "-//W3C//DTD SVG 20010904//EN"
 "http://www.w3.org/TR/2001/REC-SVG-20010904/DTD/svg10.dtd">
<svg version="1.0" xmlns="http://www.w3.org/2000/svg"
 width="700.000000pt" height="700.000000pt" viewBox="0 0 700.000000 700.000000"
 preserveAspectRatio="xMidYMid meet">
<metadata>
Created by potrace 1.11, written by Peter Selinger 2001-2013
</metadata>
<g transform="translate(0.000000,700.000000) scale(0.100000,-0.100000)"
fill="#000000" stroke="none">
<path d="M0 3500 l0 -3500 3500 0 3500 0 0 3500 0 3500 -3500 0 -3500 0 0
-3500z m3710 2296 c93 -9 121 -12 157 -20 15 -3 44 -8 63 -11 178 -29 407
-107 600 -205 142 -72 138 -70 246 -143 202 -135 416 -336 550 -517 35 -47 68
-90 73 -96 5 -6 34 -53 65 -105 164 -273 267 -558 312 -864 3 -22 8 -51 11
-65 9 -46 11 -424 2 -495 -13 -116 -18 -147 -33 -225 -87 -437 -293 -829 -606
-1154 -86 -90 -232 -217 -298 -261 -20 -13 -55 -37 -77 -53 -248 -176 -631
-322 -965 -367 -176 -23 -497 -24 -619 0 -25 5 -90 15 -121 20 -196 29 -546
160 -719 269 -22 15 -43 26 -47 26 -10 0 -191 129 -257 183 -330 273 -579 627
-715 1017 -57 166 -78 248 -108 430 -21 130 -26 482 -8 620 38 291 143 617
267 828 20 35 37 65 37 67 0 3 31 51 69 107 113 168 252 327 391 447 36 31 71
62 78 69 35 32 216 155 304 205 208 120 435 206 663 252 154 31 173 33 275 41
47 3 86 7 87 8 5 4 257 -2 323 -8z"/>
<path d="M3358 5085 c-2 -1 -30 -6 -63 -9 -85 -10 -246 -49 -341 -85 -502
-185 -881 -616 -999 -1136 -79 -347 -39 -713 113 -1036 123 -263 339 -506 587
-664 72 -46 274 -145 295 -145 9 0 20 -4 25 -9 13 -12 204 -61 263 -68 26 -2
65 -9 86 -13 59 -13 350 -4 441 13 271 51 498 150 705 309 94 72 245 230 323
339 129 180 244 458 271 654 3 22 8 60 12 85 12 76 9 310 -5 400 -25 164 -69
309 -137 458 -19 41 -34 78 -34 83 0 5 -3 9 -7 9 -5 0 -21 24 -37 53 -74 131
-264 345 -396 443 -205 152 -460 264 -686 300 -21 3 -50 8 -64 11 -30 5 -347
13 -352 8z m-673 -1197 c142 -37 260 -166 286 -312 23 -135 -10 -252 -101
-349 -79 -86 -178 -128 -296 -128 -351 0 -532 426 -288 677 56 58 98 85 169
107 83 26 144 28 230 5z"/>
</g>
</svg>
